Patient4_TMGait_0pt4_01_right_35_EMG.mot
version=1
nRows=13
nColumns=33
inDegrees=no
endheader
time	1LAddLong	2LGlutMax	3LGlutMed	4LIliopsoas	5LSemiMemb	6LBicFemLong	7LRecFem	8LVastMed	9LVastLat	10LGasMed	11LTibAnt	12lTibPost	13LPeroneusLong	14LSol	15LExtDigLong	16LFlexDigLong	17RAddLong	18RGlutMax	19RGlutMed	20RIliopsoas	21RSemiMemb	22RBicFemLong	23RRecFem	24RVastMed	25RVastLat	26RGasMed	27RTibAnt	28RTibPost	29RPeroneusLong	30RSol	31RExtDigLong	32RFlexDigLong
45.54	0.003815	0.068512	-0.14114	-0.004425	0.063629	-0.013428	0.023651	0.005341	-0.020752	-0.035706	0.025177	0.021057	-0.39414	0.037079	-0.093079	0.03952	-0.073395	-0.043335	-0.027466	0.003662	0.10819	0.030365	-0.12634	-0.12161	-0.02243	-0.010223	0.25787	-0.003052	-0.016327	-0.032349	-0.000305	-0.003052
45.541	0.02121	0.090179	-0.12604	-0.008392	0.067749	0.007782	-0.085754	0.010529	-0.037537	-0.001831	0.003967	0.035858	0.14847	-0.005493	-0.092468	0.11261	-0.05188	-0.014496	0.16388	0.047455	0.10315	0.01358	-0.19287	-0.15045	-0.024414	-0.016479	0.29938	-0.009308	-0.048981	-0.032806	0.000305	-0.008545
45.542	0.010071	0.086212	-0.091248	-0.012054	0.034637	0.016632	-0.14633	0.001526	-0.036926	0.002441	0.004578	-0.023041	0.31464	0.14282	0.027771	-0.14618	-0.036316	0.025635	0.21866	0.06546	0.09964	0.014191	-0.19547	-0.1268	-0.025024	-0.014038	0.27039	-0.002899	-0.030365	-0.051117	0.001678	-0.009766
45.543	0.013123	0.10834	-0.031738	0.002594	0.015106	0.030823	-0.081024	-0.006409	0.078735	0.03418	0.010834	-0.037842	0.036316	0.23956	0.074768	0.055695	-0.03479	0.01358	-0.004425	0.064087	0.093994	0.01297	-0.19943	-0.13763	-0.036926	-0.011292	0.019989	-0.00885	0.020294	-0.060425	0.000458	-0.004272
45.544	0.00824	0.098267	-0.14603	0.004578	0.01236	0.012207	-0.054321	0.006104	0.080872	0.031738	0.00946	0.001373	0.010376	-0.079956	0.062408	0.17441	-0.020752	0.04425	-0.1738	0.08255	0.09491	0.015259	-0.14816	-0.10132	-0.03006	-0.011139	-0.046844	-0.003662	0.04715	-0.060883	0.001221	-0.011292
45.545	0.003815	0.12329	-0.098724	-0.015411	0.005035	0.016937	-0.032959	0.004272	0.020905	0.068359	-0.001678	-0.000458	-0.029297	-0.24399	-0.031128	-0.053711	-0.014648	0.10346	-0.13687	-0.029602	0.084076	0.010071	-0.08606	-0.089111	-0.021973	-0.009155	-0.068665	-0.004578	0.009613	-0.083618	-0.00061	-0.014191
45.546	0.010986	0.077057	0.012665	-0.005798	0.015411	0.003662	-0.046692	0.006561	0.011597	0.03952	-0.00946	0.015106	0.037079	-0.10666	-0.002136	-0.078278	-0.006714	0.083618	-0.042419	-0.048981	0.072784	-0.007019	0.05127	-0.08316	-0.032959	-0.010376	-0.41046	-0.007019	-0.094757	-0.08255	-0.001526	-0.011597
45.547	0.004883	0.03891	0.003815	0.021057	0.007782	0.013733	-0.03067	0.010529	0.047455	0.015564	-0.091248	0.002747	-0.085754	-0.056	0.059357	-0.022125	-0.006561	0.020599	0.050812	-0.064697	0.072479	0.003815	0.19119	-0.026398	-0.011597	-0.005951	-0.34973	-0.003357	-0.11841	-0.090332	0.003357	-0.01709
45.548	0.01709	0.018158	0.041351	0.006409	0.012665	-0.027924	-0.034027	0.008392	0.0914	0.047302	-0.075073	0.009003	-0.03952	0.036163	0.052185	-0.018158	0.004272	0.029602	0.022278	-0.15991	0.067444	-0.00412	0.26474	0.042877	-0.010529	-0.011292	-0.21454	-0.002594	-0.03891	-0.053253	0.005341	-0.018158
45.549	0.01358	0.045776	0.1445	-0.003815	0.010986	-0.012054	-0.053253	0.003052	0.089874	0.061493	0.008698	0.001221	0.18555	0.15411	-0.003204	-0.025787	-0.003204	0.009155	-0.2002	-0.20447	0.058899	0.006256	0.21591	0.053558	0.001221	-0.004578	-0.12283	-0.007477	0.040741	-0.037994	0.000916	-0.019836
45.55	0.004425	0.02655	0.016479	0.010529	0.057526	0.002136	-0.012512	-0.002594	0.06134	0.0354	-0.01358	-0.001678	0.1033	-0.064697	0.21591	-0.01297	-0.009308	0.018921	-0.097656	-0.14801	0.064087	0.001526	0.2298	0.021973	-0.026245	-0.005951	0.00885	-0.003815	0.073853	-0.066376	0.002594	-0.018768
45.551	0.004425	0.0354	0.057373	0.006409	0.041351	0.002441	-0.010071	0.005341	0.031891	0.028381	-0.086975	0.011292	0.62286	-0.084839	-0.20554	0.018616	-0.00885	0.068817	-0.054779	0.041809	0.062103	-0.013275	0.17288	-0.019836	-0.02182	-0.001373	0.27573	-0.001678	-0.27725	-0.040741	0.002441	-0.019379
45.552	0.000916	0.01297	0.09079	0.016022	0.032959	-0.007782	0.029602	0.010376	0.005493	0.072327	-0.005798	0.004578	0.29022	0.052795	0.11276	0.000153	-0.002441	0.032349	-0.12283	0.20844	0.055084	0.013123	0.10712	-0.031586	-0.002136	-0.011597	0.63049	-0.007935	-0.35584	-0.037689	0.00473	-0.013428
